<?xml version="1.0" standalone="no"?>
<!DOCTYPE svg PUBLIC "-//W3C//DTD SVG 20010904//EN" "http://www.w3.org/TR/2001/REC-SVG-20010904/DTD/svg10.dtd">
<svg version="1.0" xmlns="http://www.w3.org/2000/svg" width="200.000000pt" height="200.000000pt"
    viewBox="0 0 250.000000 250.000000" preserveAspectRatio="xMidYMid meet">
    <metadata>
        Created by potrace 1.16, written by Peter Selinger 2001-2019
    </metadata>
    <g transform="translate(0.000000,150.000000) scale(0.150000,-0.150000)" fill="#000000" stroke="none">
        <path d="M155 835 l-25 -24 0 -311 0 -311 25 -24 24 -25 321 0 321 0 24 25 25
24 0 311 0 311 -25 24 -24 25 -321 0 -321 0 -24 -25z m673 -17 c9 -9 12 -89
12 -300 l0 -288 -340 0 -340 0 0 288 c0 211 3 291 12 300 17 17 639 17 656 0z" />
        <path d="M494 639 c-16 -5 -41 -20 -55 -35 -20 -21 -24 -36 -24 -86 0 -55 3
-62 33 -89 26 -23 41 -29 80 -29 53 0 88 19 79 42 -4 12 -17 14 -54 11 -38 -4
-53 -1 -66 12 -20 20 -22 84 -4 109 15 20 58 25 95 12 16 -5 24 -3 28 9 14 35
-53 62 -112 44z" />
    </g>
</svg>